<?xml version="1.0" encoding="UTF-8"?>
<!-- Generator: Adobe Illustrator 12.0.0, SVG Export Plug-In . SVG Version: 6.00 Build 51448)  -->
<!DOCTYPE svg PUBLIC "-//W3C//DTD SVG 1.0//EN" "http://www.w3.org/TR/2001/REC-SVG-20010904/DTD/svg10.dtd" [
	<!ENTITY ns_svg "http://www.w3.org/2000/svg">
	<!ENTITY ns_xlink "http://www.w3.org/1999/xlink">
]>
<svg version="1.0" id="Layer_1" xmlns="http://www.w3.org/2000/svg" xmlns:xlink="http://www.w3.org/1999/xlink" width="629.5" height="339.523" viewBox="0 0 629.5 339.523" style="overflow:visible;enable-background:new 0 0 629.5 339.523;" xml:space="preserve">
<!--<rect x="0" y="0" style="fill:#253381;" width="629.5" height="339.523"/>-->
<g>
	<g>
		<path style="fill:#FFFFFF;" d="M319.909,53.33c-46.031,0-83.348,37.316-83.348,83.348s37.316,83.349,83.348,83.349    c46.032,0,83.349-37.316,83.349-83.35C403.257,90.646,365.941,53.33,319.909,53.33z M319.909,215.956    c-43.783,0-79.277-35.494-79.277-79.278c0-43.783,35.495-79.277,79.277-79.277c43.784,0,79.278,35.495,79.278,79.277    C399.187,180.461,363.693,215.956,319.909,215.956z"/>
	</g>
	<g>
		<path style="fill:none;stroke:#FFFFFF;stroke-width:2.1496;" d="M319.91,224.132c-48.299,0-87.455-39.154-87.455-87.455    s39.156-87.454,87.455-87.454c48.301,0,87.455,39.155,87.455,87.454C407.365,184.978,368.21,224.132,319.91,224.132z"/>
	</g>
	<path style="fill:#FFFFFF;" d="M245.081,71.229c7.892-6.473,16.893-20.31,16.893-20.31s-2.884,0.159-6.729,2.273   c-4.786,2.632-10.741,7.333-10.741,7.333l0.582-5.822c0,0-4.741,3.756-7.768,8.729c-3.088,5.071-4.46,11.36-4.46,11.36   S238.543,76.589,245.081,71.229z M230.114,90.086c4.479-4.053,7.694-9.762,7.694-9.762s-2.735,1.362-5.283,1.773   c-1.853,0.298-3.742-0.317-3.742-0.317s-0.983-2.049-0.785-5.543c0.234-4.162,1.658-9.887,1.658-9.887s-5.305,5.723-7.599,12.605   c-0.645,1.934-1.126,3.942-1.491,5.888c-1.405,6.548-1.101,12.074-1.101,12.074S225.426,94.327,230.114,90.086z M221.729,111.418   c3.635-4.006,5.888-10.131,5.888-10.131s-3.078,1.718-6.243,2.449c-2.408,0.555-5.11,0.172-5.11,0.172s-0.847-2.492-1.185-6.058   c-0.601-6.355-0.272-16.361-0.272-16.361s-5.477,9.954-5.703,18.949c-0.209,8.3,4.249,16.569,4.249,16.569   S218.235,115.269,221.729,111.418z M211.314,136.515c0,0,5.326-4.017,8.2-8.705c2.648-4.321,2.863-9.347,2.863-9.347   s-2.567,1.404-5.3,2.467c-2.499,0.971-5.181,1.609-5.181,1.609s-2.973-3.246-4.799-7.509c-2.773-6.471-4.81-14.909-4.81-14.909   s-2.943,11.298-0.668,20.477C203.856,129.615,211.314,136.515,211.314,136.515z M212.77,158.641c0,0,3.673-3.872,5.651-8.749   c2.094-5.159,2.5-11.34,2.5-11.34l-8.441,7.569c0,0-4.536-3.005-8.433-8.16c-5.335-7.061-10.491-16.878-10.491-16.878   s-0.65,15.365,4.191,24.829C202.512,155.226,212.77,158.641,212.77,158.641z M218.301,179.021c0,0,3.242-3.754,4.261-8.588   c1.28-6.084,0.398-13.539,0.398-13.539s-1.477,3.089-3.359,5.913c-1.585,2.379-3.627,4.568-3.627,4.568s-5.294-2.132-10.464-7.007   c-7.273-6.861-15.448-18.032-15.448-18.032s0.754,16.66,7.68,25.535C204.788,176.901,218.301,179.021,218.301,179.021z    M229.656,198.527c0,0,1.972-5.252,1.903-11.063c-0.076-6.391-2.194-13.394-2.194-13.394l-6.697,12.81c0,0-6.29,0.203-12.571-3.101   c-7.694-4.045-15.668-11.747-15.668-11.747s5.219,14.561,14.261,21.361C217.248,199.831,229.656,198.527,229.656,198.527z    M243.339,215.414c0,0,0.928-5.921,0.051-11.314c-1.007-6.195-3.835-11.977-3.835-11.977s-0.536,4.23-1.805,8.035   c-1.037,3.112-2.854,5.939-2.854,5.939s-3.589,0.529-8.163,0.126c-6.562-0.581-14.837-2.163-14.837-2.163s4.47,6.184,12.52,9.091   C232.078,215.917,243.339,215.414,243.339,215.414z M249.744,205.223l-1.164,14.848c0,0-3.374,1.328-7.871,1.513   c-5.929,0.244-13.384-0.639-13.384-0.639s6.521,5.563,14.293,7.362c7.948,1.84,17.151-0.083,17.151-0.083s0.98-5.251-1.095-10.271   C255.264,212.118,249.744,205.223,249.744,205.223z M304.339,235.812c-4.975-2.746-12.38-4.387-12.38-4.387   s-7.459-1.217-14.534-3.28c-6.896-2.013-13.415-4.871-13.415-4.871s1.464,3.644,0.677,6.162c-0.657,2.102-3.588,3.153-3.588,3.153   l6.404,2.038c0,0,16.171,0.471,25.625,2.009c8.388,1.363,10.187,3.813,10.187,3.813s-1.023,1.077-4.626,1.657   c-5.144,0.83-12.843,0.673-12.843,0.673l5.53,5.241c0,0,6.063,0.739,11.299-0.777c4.789-1.388,8.791-5.047,8.791-5.047   S309.114,238.449,304.339,235.812z M394.738,71.229c6.537,5.36,12.223,3.563,12.223,3.563s-1.372-6.289-4.46-11.361   c-3.026-4.972-7.77-8.729-7.77-8.729l0.582,5.822c0,0-5.955-4.702-10.741-7.333c-3.844-2.115-6.728-2.273-6.728-2.273   S386.845,64.757,394.738,71.229z M409.705,90.086c4.688,4.24,10.647,6.833,10.647,6.833s0.306-5.52-1.097-12.063   c-0.364-1.95-0.85-3.964-1.493-5.9c-2.296-6.883-7.601-12.605-7.601-12.605s1.422,5.726,1.658,9.888   c0.197,3.495-0.785,5.543-0.785,5.543s-1.891,0.615-3.742,0.317c-2.547-0.412-5.282-1.773-5.282-1.773   S405.224,86.034,409.705,90.086z M412.2,101.287c0,0,2.253,6.125,5.889,10.131c3.495,3.853,8.378,5.59,8.378,5.59   s4.457-8.27,4.249-16.569c-0.229-8.995-5.704-18.949-5.704-18.949s0.328,10.006-0.272,16.361c-0.338,3.565-1.184,6.057-1.184,6.057   s-2.703,0.384-5.112-0.172C415.279,103.005,412.2,101.287,412.2,101.287z M422.741,120.93c-2.73-1.063-5.301-2.467-5.301-2.467   s0.216,5.024,2.864,9.347c2.874,4.688,8.2,8.705,8.2,8.705s7.457-6.9,9.691-15.917c2.275-9.179-0.668-20.477-0.668-20.477   s-2.035,8.438-4.81,14.908c-1.827,4.264-4.798,7.51-4.798,7.51S425.24,121.901,422.741,120.93z M427.34,146.123l-8.443-7.568   c0,0,0.406,6.181,2.5,11.339c1.979,4.878,5.652,8.75,5.652,8.75s10.258-3.416,15.021-12.729c4.843-9.464,4.193-24.829,4.193-24.829   s-5.156,9.818-10.492,16.878C431.875,143.117,427.34,146.123,427.34,146.123z M434.309,160.369   c-5.171,4.876-10.464,7.008-10.464,7.008s-2.042-2.19-3.628-4.568c-1.883-2.823-3.359-5.913-3.359-5.913s-0.883,7.454,0.399,13.539   c1.017,4.834,4.259,8.588,4.259,8.588s13.514-2.121,20.562-11.15c6.928-8.874,7.68-25.534,7.68-25.534   S441.584,153.508,434.309,160.369z M417.149,186.881l-6.696-12.81c0,0-2.116,7.002-2.192,13.394   c-0.069,5.81,1.901,11.063,1.901,11.063s12.408,1.304,20.968-5.133c9.042-6.801,14.262-21.361,14.262-21.361   s-7.977,7.702-15.668,11.747C423.438,187.084,417.149,186.881,417.149,186.881z M404.922,206.096c0,0-1.815-2.827-2.854-5.939   c-1.269-3.805-1.805-8.035-1.805-8.035s-2.829,5.781-3.835,11.977c-0.877,5.395,0.05,11.314,0.05,11.314s11.262,0.503,18.923-2.264   c8.051-2.907,12.521-9.091,12.521-9.091s-8.277,1.581-14.839,2.162C408.51,206.626,404.922,206.096,404.922,206.096z    M399.109,221.584c-4.498-0.186-7.871-1.513-7.871-1.513l-1.165-14.848c0,0-5.52,6.894-7.933,12.729   c-2.075,5.021-1.094,10.271-1.094,10.271s9.202,1.925,17.149,0.083c7.772-1.8,14.293-7.362,14.293-7.362   S405.038,221.828,399.109,221.584z M375.131,229.436c-0.787-2.521,0.677-6.161,0.677-6.161s-6.519,2.858-13.415,4.87   c-7.076,2.063-14.534,3.28-14.534,3.28s-7.405,1.64-12.378,4.387c-4.775,2.637-7.128,6.387-7.128,6.387s4.003,3.658,8.79,5.046   c5.236,1.519,11.299,0.777,11.299,0.777l5.531-5.241c0,0-7.699,0.158-12.843-0.671c-3.603-0.582-4.625-1.658-4.625-1.658   s1.798-2.45,10.186-3.813c9.454-1.538,25.624-2.009,25.624-2.009l6.405-2.038C378.719,232.59,375.788,231.538,375.131,229.436z"/>
	<path style="fill:#FFFFFF;" d="M316.675,139.02c0.003,0,0.004,0,0.004,0h-0.007c-0.354-0.006-16.407-0.262-19.06-2.913   c-2.651-2.651-2.907-18.705-2.912-19.059v-0.007c0,0,0,0.001,0,0.004c0-0.003,0-0.004,0-0.004v0.007   c-0.006,0.354-0.261,16.407-2.913,19.059c-2.637,2.638-18.537,2.905-19.051,2.913h-0.013c0,0,0.003,0,0.007,0   c-0.004,0-0.007,0-0.007,0h0.013c0.515,0.007,16.414,0.275,19.051,2.912c2.652,2.651,2.907,18.705,2.913,19.059v0.007   c0,0,0-0.001,0-0.004c0,0.002,0,0.004,0,0.004v-0.007c0.006-0.354,0.261-16.406,2.913-19.059   c2.651-2.651,18.705-2.907,19.059-2.912h0.007C316.678,139.02,316.677,139.02,316.675,139.02z"/>
	<path style="fill:#FFFFFF;" d="M353.525,113.174c0.002,0,0.003,0,0.003,0h-0.006c-0.272-0.004-12.656-0.2-14.701-2.246   s-2.242-14.429-2.247-14.7v-0.004c0,0,0,0,0,0.002c0-0.001,0-0.002,0-0.002v0.004c-0.004,0.271-0.201,12.654-2.245,14.7   c-2.034,2.034-14.299,2.24-14.696,2.246h-0.011c0,0,0.003,0,0.007,0c-0.004,0-0.007,0-0.007,0h0.011   c0.397,0.007,12.662,0.212,14.696,2.247c2.045,2.045,2.242,14.43,2.245,14.701v0.006c0,0,0-0.001,0-0.003c0,0.002,0,0.003,0,0.003   v-0.006c0.005-0.271,0.202-12.656,2.248-14.701c2.045-2.045,14.428-2.243,14.7-2.247h0.006   C353.527,113.174,353.526,113.174,353.525,113.174z"/>
	<path style="fill:#FFFFFF;" d="M361.284,157.443c0.001,0,0.003,0,0.003,0h-0.006c-0.253-0.004-11.813-0.189-13.722-2.097   c-1.91-1.909-2.094-13.469-2.098-13.724v-0.005c0,0,0,0.001,0,0.003c0-0.001,0-0.003,0-0.003v0.005   c-0.005,0.254-0.188,11.813-2.098,13.723c-1.898,1.898-13.347,2.092-13.717,2.098h-0.01c0,0,0.002,0,0.005,0   c-0.003,0-0.005,0-0.005,0h0.01c0.37,0.007,11.818,0.199,13.717,2.097c1.91,1.91,2.094,13.469,2.098,13.723v0.006c0,0,0,0,0-0.002   c0,0.001,0,0.002,0,0.002v-0.006c0.005-0.253,0.188-11.813,2.098-13.723c1.909-1.909,13.469-2.093,13.722-2.097h0.006   C361.287,157.443,361.285,157.443,361.284,157.443z"/>
	<circle style="fill:#FFFFFF;" cx="347.919" cy="136.197" r="3.676"/>
	<circle style="fill:#FFFFFF;" cx="326.039" cy="150.31" r="3.676"/>
	<circle style="fill:#FFFFFF;" cx="301.844" cy="176.746" r="3.676"/>
	<circle style="fill:#FFFFFF;" cx="319.915" cy="127.409" r="3.415"/>
	<circle style="fill:#FFFFFF;" cx="320.119" cy="169.431" r="3.627"/>
	<circle style="fill:#FFFFFF;" cx="271.824" cy="171.966" r="3.676"/>
	<circle style="fill:#FFFFFF;" cx="388.092" cy="107.809" r="3.676"/>
	<circle style="fill:#FFFFFF;" cx="368.008" cy="100.078" r="3.709"/>
	<circle style="fill:#FFFFFF;" cx="319.468" cy="137.615" r="2.697"/>
	<circle style="fill:#FFFFFF;" cx="282.627" cy="170.373" r="2.697"/>
	<circle style="fill:#FFFFFF;" cx="251.462" cy="157.331" r="2.697"/>
	<circle style="fill:#FFFFFF;" cx="331.265" cy="68.166" r="2.697"/>
	<circle style="fill:#FFFFFF;" cx="345.639" cy="65.969" r="2.697"/>
	<circle style="fill:#FFFFFF;" cx="256.214" cy="127.479" r="2.979"/>
	<circle style="fill:#FFFFFF;" cx="250.233" cy="148.636" r="2.978"/>
	<circle style="fill:#FFFFFF;" cx="304.118" cy="94.751" r="2.979"/>
	<circle style="fill:#FFFFFF;" cx="291.237" cy="95.629" r="2.018"/>
	<circle style="fill:#FFFFFF;" cx="315.118" cy="83.972" r="2.018"/>
	<circle style="fill:#FFFFFF;" cx="320.296" cy="117.625" r="2.018"/>
	<circle style="fill:#FFFFFF;" cx="300.4" cy="128.804" r="2.018"/>
	<circle style="fill:#FFFFFF;" cx="309.013" cy="145.731" r="2.019"/>
	<circle style="fill:#FFFFFF;" cx="312.448" cy="162.657" r="2.018"/>
	<circle style="fill:#FFFFFF;" cx="312.747" cy="151.705" r="2.019"/>
	<circle style="fill:#FFFFFF;" cx="320.114" cy="154.094" r="2.018"/>
	<circle style="fill:#FFFFFF;" cx="349.04" cy="146.128" r="2.018"/>
	<path style="fill:#FFFFFF;" d="M339.284,150.883c0,1.114-0.903,2.019-2.019,2.019s-2.019-0.903-2.019-2.019   c0-1.114,0.902-2.019,2.019-2.019C338.38,148.864,339.284,149.768,339.284,150.883z"/>
	<circle style="fill:#FFFFFF;" cx="362.332" cy="124.622" r="2.018"/>
	<circle style="fill:#FFFFFF;" cx="320.911" cy="144.635" r="2.019"/>
	<circle style="fill:#FFFFFF;" cx="330.669" cy="161.064" r="2.018"/>
	<circle style="fill:#FFFFFF;" cx="367.709" cy="125.816" r="2.019"/>
	<circle style="fill:#FFFFFF;" cx="383.639" cy="115.212" r="2.018"/>
	<path style="fill:#FFFFFF;" d="M385.658,142.558c0,1.271-1.031,2.303-2.303,2.303c-1.273,0-2.305-1.031-2.305-2.303   c0-1.273,1.031-2.306,2.305-2.306C384.625,140.254,385.658,141.286,385.658,142.558z"/>
	<circle style="fill:#FFFFFF;" cx="359.145" cy="108.89" r="2.018"/>
	<circle style="fill:#FFFFFF;" cx="371.89" cy="105.206" r="2.018"/>
	<circle style="fill:#FFFFFF;" cx="373.534" cy="111.479" r="2.018"/>
	<circle style="fill:#FFFFFF;" cx="362.531" cy="90.569" r="2.019"/>
	<circle style="fill:#FFFFFF;" cx="376.072" cy="95.349" r="2.018"/>
	<circle style="fill:#FFFFFF;" cx="368.008" cy="80.015" r="2.018"/>
	<circle style="fill:#FFFFFF;" cx="299.604" cy="155.09" r="2.019"/>
	<circle style="fill:#FFFFFF;" cx="297.911" cy="169.826" r="2.019"/>
	<circle style="fill:#FFFFFF;" cx="288.452" cy="172.713" r="2.019"/>
	<circle style="fill:#FFFFFF;" cx="284.071" cy="160.765" r="2.018"/>
	<circle style="fill:#FFFFFF;" cx="291.339" cy="160.766" r="2.018"/>
	<circle style="fill:#FFFFFF;" cx="273.716" cy="153.696" r="2.018"/>
	<circle style="fill:#FFFFFF;" cx="280.337" cy="142.694" r="2.018"/>
	<circle style="fill:#FFFFFF;" cx="267.343" cy="136.271" r="2.018"/>
	<circle style="fill:#FFFFFF;" cx="250.019" cy="114.615" r="2.018"/>
	<circle style="fill:#FFFFFF;" cx="255.125" cy="174.292" r="2.018"/>
	<circle style="fill:#FFFFFF;" cx="268.14" cy="186.006" r="2.018"/>
	<circle style="fill:#FFFFFF;" cx="279.89" cy="176.447" r="2.018"/>
	<circle style="fill:#FFFFFF;" cx="331.265" cy="210.599" r="2.018"/>
	<circle style="fill:#FFFFFF;" cx="274.513" cy="187.151" r="2.018"/>
	<circle style="fill:#FFFFFF;" cx="276.703" cy="198.253" r="2.018"/>
	<circle style="fill:#FFFFFF;" cx="288.054" cy="189.54" r="2.018"/>
	<circle style="fill:#FFFFFF;" cx="327.881" cy="193.424" r="2.018"/>
	<circle style="fill:#FFFFFF;" cx="330.968" cy="180.281" r="2.018"/>
	<circle style="fill:#FFFFFF;" cx="375.624" cy="182.073" r="2.018"/>
	<circle style="fill:#FFFFFF;" cx="365.469" cy="150.609" r="2.018"/>
	<circle style="fill:#FFFFFF;" cx="357.257" cy="140.003" r="2.206"/>
	<circle style="fill:#FFFFFF;" cx="353.085" cy="132.55" r="2.155"/>
	<circle style="fill:#FFFFFF;" cx="332.721" cy="134.739" r="2.279"/>
	<circle style="fill:#FFFFFF;" cx="350.344" cy="108.453" r="2.279"/>
	<circle style="fill:#FFFFFF;" cx="345.604" cy="119.544" r="2.353"/>
	<circle style="fill:#FFFFFF;" cx="323.5" cy="190.038" r="2.018"/>
	<circle style="fill:#FFFFFF;" cx="335.448" cy="177.293" r="2.018"/>
	<circle style="fill:#FFFFFF;" cx="367.111" cy="113.57" r="2.018"/>
	<circle style="fill:#FFFFFF;" cx="352.801" cy="117.878" r="2.19"/>
	<circle style="fill:#FFFFFF;" cx="277.898" cy="93.407" r="2.697"/>
	<circle style="fill:#FFFFFF;" cx="328.478" cy="175.252" r="2.697"/>
	<circle style="fill:#FFFFFF;" cx="336.195" cy="188.545" r="2.697"/>
	<circle style="fill:#FFFFFF;" cx="292.883" cy="191.531" r="2.697"/>
	<circle style="fill:#FFFFFF;" cx="291.636" cy="183.762" r="2.894"/>
	<circle style="fill:#FFFFFF;" cx="291.52" cy="68.284" r="2.977"/>
	<circle style="fill:#FFFFFF;" cx="355.611" cy="123.626" r="2.978"/>
	<circle style="fill:#FFFFFF;" cx="379.657" cy="120.888" r="2.977"/>
	<circle style="fill:#FFFFFF;" cx="388.02" cy="161.811" r="2.977"/>
	<circle style="fill:#FFFFFF;" cx="389.813" cy="126.414" r="2.978"/>
	<circle style="fill:#FFFFFF;" cx="337.762" cy="139.183" r="2.697"/>
</g>
<g id="Ebene_4">
</g>
<g>
	<path style="fill:#FFFFFF;" d="M64.298,280.359v1.063c-2.394,0.201-2.659,0.434-2.659,4.023v6.846c0,5.217,1.694,8.044,5.318,8.044   c3.922,0,5.75-2.959,5.75-8.675v-2.194c0-3.49-0.2-5.316-0.333-6.347c-0.167-1.163-0.999-1.596-3.191-1.697v-1.063h8.242v1.063   c-1.661,0.068-2.459,0.534-2.625,1.697c-0.133,1.03-0.333,2.856-0.333,6.347v2.427c0,3.189-0.499,6.147-2.36,8.108   c-1.461,1.564-3.855,2.459-6.181,2.459c-2.194,0-4.454-0.43-6.083-1.792c-1.761-1.432-2.525-3.822-2.526-7.713v-7.51   c0-3.59-0.267-3.822-2.792-4.023v-1.063H64.298z"/>
	<path style="fill:#FFFFFF;" d="M98.465,302.195h-2.027l-13.163-16.22h-0.067v6.88c0,3.49,0.201,5.318,0.334,6.349   c0.165,1.163,0.997,1.596,3.189,1.696v1.063H78.49V300.9c1.661-0.067,2.458-0.533,2.625-1.696c0.132-1.03,0.333-2.858,0.333-6.349   v-6.581c0-2.125,0-2.924-0.6-3.722c-0.63-0.798-1.461-1.029-2.824-1.131v-1.063h5.784l12.829,14.955h0.066v-5.849   c0-3.49-0.198-5.316-0.331-6.347c-0.167-1.163-0.998-1.596-3.192-1.697v-1.063h8.243v1.063c-1.662,0.068-2.46,0.534-2.625,1.697   c-0.134,1.03-0.333,2.856-0.333,6.347V302.195z"/>
	<path style="fill:#FFFFFF;" d="M110.031,296.879c0,3.588,0.265,3.82,2.726,4.021v1.063h-9.771V300.9   c2.459-0.201,2.725-0.434,2.725-4.021v-11.434c0-3.59-0.266-3.822-2.725-4.023v-1.063h9.771v1.063   c-2.46,0.201-2.725,0.434-2.725,4.023V296.879z"/>
	<path style="fill:#FFFFFF;" d="M126.216,296.879c0,3.588,0.265,3.82,3.257,4.021v1.063h-10.702V300.9   c2.857-0.201,3.124-0.434,3.124-4.021l0-15.023h-0.831c-2.692,0-3.589,0.398-4.087,0.962c-0.433,0.465-0.832,1.396-1.231,3.06   h-1.196c0.133-2.362,0.331-4.654,0.398-6.348h0.631c0.599,0.763,0.932,0.83,1.829,0.83h13.361c0.865,0,1.229-0.199,1.827-0.83   h0.631c0.035,1.396,0.201,3.985,0.367,6.248l-1.197,0.1c-0.333-1.796-0.698-2.727-1.229-3.258   c-0.533-0.566-1.629-0.764-3.591-0.764h-1.362V296.879z"/>
	<path style="fill:#FFFFFF;" d="M138.049,285.445c0-3.59-0.267-3.822-2.66-4.023v-1.063h15.255c0.034,0.565,0.2,2.991,0.367,5.186   l-1.197,0.1c-0.333-1.563-0.698-2.494-1.231-3.025c-0.531-0.566-1.628-0.764-3.589-0.764h-1.295c-1.263,0-1.33,0-1.33,1.162v6.813   h2.426c2.858,0,2.958-0.167,3.291-2.79h1.196v7.277h-1.196c-0.333-2.625-0.433-2.791-3.291-2.791h-2.426v5.218   c0,2.427,0.133,3.125,0.831,3.458c0.565,0.264,1.462,0.264,2.825,0.264c1.53,0,3.059-0.2,3.79-0.999   c0.565-0.597,1.097-1.728,1.629-3.319l1.196,0.232c-0.201,1.295-0.864,4.684-1.163,5.582h-16.419V300.9   c2.725-0.201,2.991-0.434,2.991-4.021V285.445z"/>
	<path style="fill:#FFFFFF;" d="M164.072,280.359c3.823,0,7.213,0.83,9.44,2.957c1.562,1.494,2.858,3.957,2.858,6.912   c0,8.177-6.282,11.734-14.091,11.734h-8.41V300.9c2.593-0.201,2.859-0.434,2.859-4.021v-11.434c0-3.59-0.267-3.822-2.592-4.023   l0-1.063H164.072z M161.049,296.677c0,3.061,0.333,3.79,2.725,3.79c4.786,0,7.744-3.722,7.744-9.307   c0-7.146-3.623-9.374-8.342-9.374c-0.965,0-1.696,0.102-1.895,0.233c-0.201,0.133-0.233,0.832-0.233,1.729V296.677z"/>
	<path style="fill:#FFFFFF;" d="M192.49,290.164h2.958c2.859,0,2.958-0.168,3.291-2.626h1.196v6.979h-1.196   c-0.333-2.492-0.432-2.658-3.291-2.658h-2.958v5.021c0,3.588,0.265,3.82,3.19,4.021v1.063H185.51V300.9   c2.393-0.201,2.658-0.434,2.658-4.021l0-11.434c0-3.59-0.266-3.822-2.658-4.023v-1.063h15.389c0.032,0.565,0.199,2.991,0.365,5.186   l-1.196,0.1c-0.333-1.563-0.698-2.494-1.229-3.026c-0.532-0.565-1.628-0.763-3.589-0.763h-1.43c-1.263,0-1.329,0-1.329,1.162   V290.164z"/>
	<path style="fill:#FFFFFF;" d="M206.016,285.445c0-3.59-0.267-3.822-2.659-4.023v-1.063h15.255   c0.034,0.565,0.201,2.991,0.367,5.186l-1.197,0.1c-0.333-1.563-0.698-2.494-1.231-3.026c-0.531-0.565-1.628-0.763-3.589-0.763   h-1.295c-1.263,0-1.33,0-1.33,1.162v6.813h2.426c2.857,0,2.958-0.167,3.291-2.79h1.197v7.277h-1.197   c-0.332-2.625-0.433-2.791-3.291-2.791h-2.426v5.218c0,2.427,0.133,3.125,0.831,3.458c0.566,0.264,1.462,0.264,2.825,0.264   c1.529,0,3.058-0.2,3.79-0.999c0.565-0.597,1.097-1.728,1.628-3.319l1.197,0.232c-0.2,1.295-0.864,4.684-1.163,5.582h-16.419V300.9   c2.725-0.201,2.991-0.434,2.991-4.021V285.445z"/>
	<path style="fill:#FFFFFF;" d="M232.04,280.359c3.823,0,7.213,0.83,9.44,2.957c1.563,1.494,2.857,3.957,2.857,6.912   c0,8.177-6.281,11.734-14.092,11.734h-8.409V300.9c2.592-0.201,2.859-0.434,2.859-4.021v-11.434c0-3.59-0.267-3.822-2.593-4.023   v-1.063H232.04z M229.016,296.677c0,3.061,0.332,3.79,2.725,3.79c4.786,0,7.744-3.722,7.744-9.307c0-7.146-3.623-9.374-8.341-9.374   c-0.965,0-1.696,0.102-1.895,0.233c-0.2,0.133-0.232,0.832-0.232,1.729V296.677z"/>
	<path style="fill:#FFFFFF;" d="M249.49,285.445c0-3.59-0.267-3.822-2.66-4.023v-1.063h15.255c0.034,0.565,0.2,2.991,0.367,5.186   l-1.197,0.1c-0.333-1.563-0.699-2.494-1.231-3.026c-0.532-0.565-1.628-0.763-3.589-0.763h-1.295c-1.263,0-1.33,0-1.33,1.162v6.813   h2.426c2.858,0,2.958-0.167,3.291-2.79h1.197v7.277h-1.197c-0.333-2.625-0.433-2.791-3.291-2.791h-2.426v5.218   c0,2.427,0.132,3.125,0.831,3.458c0.564,0.264,1.462,0.264,2.825,0.264c1.529,0,3.058-0.2,3.79-0.999   c0.565-0.597,1.096-1.728,1.628-3.319l1.197,0.232c-0.2,1.295-0.865,4.684-1.163,5.582h-16.419V300.9   c2.725-0.201,2.992-0.434,2.992-4.021V285.445z"/>
	<path style="fill:#FFFFFF;" d="M272.123,296.879c0,3.588,0.266,3.82,2.726,4.021v1.063h-9.672V300.9   c2.526-0.201,2.792-0.434,2.791-4.021v-11.434c0-3.59-0.265-3.822-2.659-4.023v-1.063h9.006c2.826,0,4.622,0.298,5.952,1.131   c1.33,0.83,2.193,2.392,2.193,4.287c0,2.893-1.728,4.652-4.288,5.615c0.466,0.93,1.729,3.191,2.693,4.756   c1.129,1.76,2.027,3.056,2.625,3.753c0.666,0.73,1.131,1.097,1.962,1.363l-0.066,0.998l-1.196-0.067   c-4.055-0.232-5.185-1.098-6.481-3.023c-1.031-1.529-1.961-3.458-2.825-5.253c-0.498-1.063-0.964-1.329-1.994-1.329h-0.765V296.879   z M272.123,291.36h0.964c1.363,0,2.26-0.232,3.058-0.864c1.296-1.031,1.794-2.593,1.794-4.222c0-3.289-2.294-4.488-4.155-4.488   c-1.562,0-1.661,0.102-1.661,1.433V291.36z"/>
	<path style="fill:#FFFFFF;" d="M297.782,300.9l0.863-0.135c1.232-0.165,1.397-0.531,0.832-1.959   c-0.433-1.099-1.063-2.828-1.562-4.057h-5.883c-0.399,0.964-0.832,2.429-1.263,3.856c-0.499,1.66-0.433,2.025,1.097,2.193   l0.831,0.101v1.063h-7.512V300.9c1.995-0.232,2.426-0.401,3.589-3.393l6.714-17.083l1.629-0.465l2.194,6.183   c1.396,3.954,2.857,7.908,4.121,11.269c1.164,3.122,1.696,3.288,3.457,3.489v1.063h-9.106V300.9z M292.498,293.055h4.853   l-2.394-6.848h-0.098L292.498,293.055z"/>
	<path style="fill:#FFFFFF;" d="M316.162,296.879c0,3.588,0.264,3.82,3.258,4.021v1.063h-10.702V300.9   c2.857-0.201,3.123-0.434,3.123-4.021v-15.023h-0.832c-2.69,0-3.588,0.397-4.086,0.962c-0.433,0.465-0.832,1.396-1.23,3.06h-1.197   c0.133-2.362,0.333-4.654,0.398-6.348h0.631c0.6,0.763,0.931,0.83,1.828,0.83h13.361c0.865,0,1.23-0.199,1.828-0.83h0.632   c0.034,1.396,0.198,3.985,0.366,6.248l-1.196,0.1c-0.334-1.796-0.699-2.727-1.229-3.259c-0.533-0.565-1.629-0.763-3.592-0.763   h-1.361V296.879z"/>
	<path style="fill:#FFFFFF;" d="M332.314,296.879c0,3.588,0.266,3.82,2.725,4.021v1.063h-9.77V300.9   c2.459-0.201,2.725-0.434,2.725-4.021v-11.434c0-3.59-0.266-3.822-2.725-4.023v-1.063h9.77v1.063   c-2.459,0.201-2.725,0.434-2.725,4.023V296.879z"/>
	<path style="fill:#FFFFFF;" d="M349.133,279.859c5.949,0,10.635,4.522,10.635,10.967c0,7.015-4.852,11.634-11.434,11.634   c-6.547,0-10.869-4.885-10.869-10.968C337.465,286.142,341.09,279.859,349.133,279.859z M349.099,300.965   c3.422,0,5.75-2.925,5.75-9.072c0-6.617-2.328-10.537-6.58-10.537c-3.457,0-5.885,3.423-5.885,9.207   C342.385,296.345,344.677,300.965,349.099,300.965z"/>
	<path style="fill:#FFFFFF;" d="M381.937,302.195h-2.027l-13.164-16.221h-0.066v6.881c0,3.49,0.201,5.318,0.334,6.348   c0.166,1.164,0.994,1.597,3.189,1.697v1.063h-8.24V300.9c1.66-0.067,2.457-0.533,2.623-1.697c0.135-1.029,0.334-2.857,0.334-6.348   v-6.581c0-2.125,0-2.924-0.602-3.722c-0.629-0.798-1.461-1.03-2.824-1.131v-1.063h5.785l12.828,14.955h0.066v-5.85   c0-3.49-0.199-5.315-0.33-6.346c-0.168-1.163-0.998-1.597-3.191-1.697v-1.063h8.242v1.063c-1.662,0.068-2.461,0.534-2.625,1.697   c-0.133,1.03-0.334,2.855-0.334,6.346L381.937,302.195z"/>
	<path style="fill:#FFFFFF;" d="M408.359,294.318c0,5.419-3.822,8.041-7.645,8.041c-5.119,0-7.68-3.786-7.68-7.343   c0-5.253,4.123-8.076,7.846-8.076C405.5,286.94,408.359,290.462,408.359,294.318z M401.08,300.965c1.197,0,2.693-0.83,2.691-5.65   c0-4.419-1.262-6.978-3.389-6.978c-1.363,0-2.758,1.76-2.758,5.35C397.625,297.876,398.953,300.965,401.08,300.965z"/>
	<path style="fill:#FFFFFF;" d="M416.4,289.034v9.672c0,1.793,0.166,1.962,2.859,2.194v1.063h-8.975V300.9   c1.895-0.232,2.061-0.401,2.061-2.194v-9.672h-2.193l-0.234-0.434l1.064-1.263h1.363v-0.698c0-0.962,0.166-1.792,0.398-2.559   c0.199-0.665,0.697-2.357,2.459-3.889c1.297-1.129,2.494-1.63,3.889-1.829c1.465,0.067,2.494,0.565,3.092,1.231   c0.434,0.465,0.4,0.896,0.199,1.296c-0.164,0.299-0.498,0.797-0.83,1.065c-0.4,0.328-0.697,0.265-0.996,0   c-0.668-0.601-2.193-1.465-3.092-1.465c-0.664,0-0.965,0.333-1.096,0.899c-0.135,0.529-0.135,1.793,0,4.851l0.031,1.097h3.789   c0.166,0.365,0.035,1.43-0.498,1.696H416.4z"/>
	<path style="fill:#FFFFFF;" d="M435.642,296.879c0,3.588,0.268,3.82,3.225,4.021v1.063h-10.168V300.9   c2.457-0.201,2.723-0.434,2.723-4.021v-11.434c0-3.59-0.266-3.822-2.557-4.023v-1.063h8.939c2.594,0,4.553,0.365,5.951,1.328   c1.496,1.031,2.326,2.626,2.326,4.819c0,4.222-3.193,6.249-6.68,6.681c-0.535,0.068-1.1,0.068-1.465,0.068l-2.295-0.5V296.879z    M435.642,291.295c0.566,0.197,1.266,0.365,1.963,0.365c0.932,0,3.855-0.598,3.855-5.253c0-3.556-1.895-4.621-4.287-4.621   c-1.463,0-1.531,0.233-1.531,1.199V291.295z"/>
	<path style="fill:#FFFFFF;" d="M455.222,296.745c0,2.427,0.131,3.156,0.83,3.457c0.566,0.233,1.461,0.265,2.492,0.265   c1.297,0,2.824-0.2,3.59-1.03c0.533-0.63,1.064-1.696,1.596-3.288l1.197,0.232c-0.199,1.295-0.865,4.684-1.162,5.582H447.91V300.9   c2.725-0.201,2.99-0.434,2.99-4.021v-11.434c0-3.59-0.266-3.822-2.795-4.023v-1.063h9.975v1.063   c-2.592,0.201-2.857,0.434-2.857,4.023V296.745z"/>
	<path style="fill:#FFFFFF;" d="M477.521,300.9l0.863-0.135c1.232-0.165,1.398-0.531,0.832-1.959   c-0.432-1.099-1.064-2.828-1.563-4.058h-5.883c-0.396,0.965-0.83,2.43-1.262,3.857c-0.498,1.66-0.434,2.025,1.096,2.193l0.83,0.101   v1.063h-7.51V300.9c1.994-0.232,2.426-0.401,3.59-3.393l6.715-17.083l1.627-0.465l2.195,6.183   c1.395,3.954,2.857,7.908,4.119,11.269c1.164,3.122,1.697,3.288,3.457,3.489v1.063h-9.107V300.9z M472.238,293.055h4.852   l-2.393-6.848h-0.098L472.238,293.055z"/>
	<path style="fill:#FFFFFF;" d="M507.504,302.195h-2.029l-13.162-16.221h-0.068l0.002,6.881c0,3.49,0.199,5.318,0.332,6.348   c0.168,1.164,0.998,1.597,3.191,1.697v1.063h-8.242V300.9c1.66-0.067,2.459-0.533,2.625-1.697c0.133-1.029,0.332-2.857,0.332-6.348   v-6.581c0-2.125,0-2.924-0.6-3.722c-0.629-0.798-1.461-1.03-2.824-1.131v-1.063h5.785l12.828,14.955h0.066v-5.85   c0-3.49-0.199-5.315-0.332-6.346c-0.166-1.163-0.998-1.597-3.191-1.697v-1.063h8.242v1.063c-1.66,0.068-2.459,0.534-2.625,1.697   c-0.133,1.03-0.33,2.855-0.33,6.346V302.195z"/>
	<path style="fill:#FFFFFF;" d="M514.746,285.445c0-3.59-0.264-3.822-2.658-4.023v-1.063h15.254   c0.035,0.565,0.201,2.991,0.367,5.186l-1.197,0.1c-0.332-1.563-0.697-2.494-1.23-3.026c-0.531-0.565-1.627-0.763-3.588-0.763   h-1.297c-1.262,0-1.328,0-1.328,1.162v6.813h2.426c2.857,0,2.959-0.167,3.289-2.79h1.197v7.277h-1.197   c-0.33-2.625-0.432-2.791-3.289-2.791h-2.426v5.218c0,2.426,0.131,3.125,0.83,3.457c0.564,0.265,1.461,0.265,2.824,0.265   c1.529,0,3.059-0.2,3.789-0.999c0.566-0.597,1.096-1.728,1.631-3.319l1.195,0.232c-0.199,1.295-0.863,4.684-1.164,5.582h-16.42   V300.9c2.729-0.201,2.994-0.434,2.994-4.021L514.746,285.445z"/>
	<path style="fill:#FFFFFF;" d="M541.9,296.879c0,3.588,0.268,3.82,3.258,4.021v1.063h-10.701V300.9   c2.857-0.201,3.125-0.434,3.125-4.021v-15.023h-0.834c-2.689,0-3.588,0.396-4.086,0.962c-0.434,0.465-0.832,1.396-1.23,3.06h-1.195   c0.131-2.362,0.33-4.654,0.398-6.348h0.631c0.6,0.763,0.932,0.83,1.83,0.83h13.359c0.863,0,1.229-0.2,1.826-0.83h0.633   c0.035,1.396,0.201,3.985,0.367,6.248l-1.197,0.1c-0.334-1.796-0.697-2.727-1.23-3.259c-0.533-0.565-1.629-0.763-3.59-0.763H541.9   V296.879z"/>
	<path style="fill:#FFFFFF;" d="M552.039,295.582c0.566,1.829,2.459,5.383,5.752,5.383c2.193,0,3.422-1.629,3.422-3.521   c0-2.262-1.229-3.357-3.756-4.455l-0.666-0.298c-2.793-1.229-5.15-3.159-5.15-6.315c0-3.558,2.76-6.516,7.379-6.516   c0.996,0,2.061,0.135,3.057,0.465c0.533,0.167,1.031,0.3,1.432,0.434c0.131,1.198,0.365,2.693,0.695,4.688l-1.197,0.232   c-0.662-1.961-1.662-4.322-4.486-4.322c-2.027,0-3.225,1.462-3.225,3.323c0,1.696,1.232,2.892,3.625,3.922l1.064,0.466   c2.656,1.131,5.115,2.891,5.117,6.48c0,3.921-3.09,6.913-7.877,6.913c-1.23,0-2.461-0.233-3.357-0.53   c-0.932-0.3-1.563-0.564-1.994-0.765c-0.266-0.864-0.664-3.156-1.029-5.152L552.039,295.582z"/>
</g>
</svg>